<?xml version="1.0" standalone="no"?>
<!DOCTYPE svg PUBLIC "-//W3C//DTD SVG 20010904//EN"
 "http://www.w3.org/TR/2001/REC-SVG-20010904/DTD/svg10.dtd">
<svg version="1.0" xmlns="http://www.w3.org/2000/svg"
 width="824.000000pt" height="824.000000pt" viewBox="0 0 824.000000 824.000000"
 preserveAspectRatio="xMidYMid meet">
<metadata>
Created by potrace 1.15, written by Peter Selinger 2001-2017
</metadata>
<g transform="translate(0.000000,824.000000) scale(0.100000,-0.100000)"
fill="#000000" stroke="none">
<path d="M4025 7880 c-103 -36 -577 -200 -720 -249 -141 -48 -152 -54 -170
-99 -9 -20 -19 -39 -23 -42 -4 -3 -18 -27 -32 -55 -14 -27 -46 -89 -72 -138
l-47 -87 24 -143 c24 -135 39 -235 50 -322 5 -40 5 -39 -24 20 -15 33 -59 142
-96 243 -38 100 -71 179 -75 175 -4 -5 -21 -55 -38 -113 -18 -58 -88 -287
-157 -509 -69 -222 -124 -406 -121 -408 2 -2 62 11 133 31 510 139 990 194
1597 183 516 -9 918 -63 1352 -182 69 -19 128 -35 131 -35 3 0 3 8 0 18 -9 31
-74 243 -132 427 -74 236 -127 409 -161 520 l-27 90 -78 -210 c-43 -116 -87
-228 -98 -250 l-20 -40 5 50 c4 28 21 138 40 245 19 107 34 199 34 205 0 9
-59 119 -164 310 -15 28 -33 55 -39 62 -7 6 -59 27 -117 46 -126 43 -353 120
-630 216 -112 39 -213 71 -225 70 -11 0 -56 -13 -100 -29z m366 -226 c134 -41
316 -98 404 -126 88 -28 170 -52 183 -55 12 -3 22 -9 22 -14 0 -7 -141 -422
-255 -749 -24 -69 -51 -149 -61 -179 l-17 -54 -176 7 c-97 3 -218 9 -268 13
l-93 6 0 613 c0 338 4 614 9 614 4 0 118 -34 252 -76z"/>
<path d="M3855 6199 c-71 -4 -220 -13 -330 -19 -833 -46 -1305 -152 -1506
-337 -159 -147 -141 -290 71 -578 193 -262 552 -611 820 -800 53 -37 59 -38
35 -2 -43 66 -132 405 -169 642 -21 137 -46 360 -46 417 0 46 -2 48 -37 64
-21 8 -66 23 -100 32 -35 9 -63 22 -63 28 0 31 216 54 290 32 l45 -14 12 -181
c6 -100 16 -223 23 -275 33 -269 112 -625 165 -743 77 -173 131 -385 160 -635
3 -30 13 -77 22 -105 14 -46 70 -163 83 -175 3 -3 22 -28 42 -55 83 -114 247
-245 423 -336 138 -71 204 -89 332 -89 117 0 185 16 300 70 203 95 389 247
492 400 70 104 106 204 122 330 26 221 67 382 144 570 97 237 172 631 198
1044 l12 179 35 13 c19 7 63 13 98 13 76 1 202 -26 202 -43 0 -6 -26 -19 -57
-28 -125 -36 -138 -43 -140 -80 -19 -265 -55 -515 -99 -698 -31 -127 -90 -311
-115 -362 -11 -21 -19 -40 -19 -43 0 -8 185 135 290 225 455 389 731 737 756
952 5 41 1 66 -16 111 -84 223 -493 364 -1250 431 -252 22 -294 25 -600 41
-306 16 -421 17 -625 4z m690 -453 c94 -14 281 -45 417 -70 136 -25 250 -46
254 -46 9 0 -4 -266 -21 -425 -50 -452 -126 -692 -318 -995 -174 -275 -409
-497 -592 -560 -79 -27 -219 -27 -307 0 -133 41 -327 198 -483 391 -123 152
-254 386 -308 549 -81 245 -147 668 -147 946 l0 92 28 6 c106 22 685 117 762
126 159 17 179 18 365 14 118 -3 239 -12 350 -28z"/>
<path d="M3010 3755 c-19 -23 -156 -118 -225 -156 -251 -137 -532 -252 -980
-399 -410 -134 -474 -159 -516 -202 -131 -135 -290 -641 -433 -1378 -55 -282
-106 -574 -101 -579 2 -2 176 -39 387 -82 211 -43 527 -108 703 -144 176 -37
352 -73 390 -80 39 -8 203 -42 365 -75 162 -34 381 -79 485 -100 631 -130 878
-181 943 -194 40 -9 85 -16 100 -16 15 0 148 25 297 55 276 56 325 66 430 84
33 6 85 18 115 26 30 8 244 53 475 100 231 47 472 97 535 110 63 14 324 68
580 120 673 138 943 194 946 197 3 4 -71 426 -106 598 -47 232 -129 616 -144
673 -44 164 -64 225 -113 352 -64 161 -103 242 -146 303 -40 55 -113 91 -347
167 -722 237 -1087 390 -1313 551 -55 40 -62 42 -45 12 21 -39 14 -155 -14
-228 -49 -127 -146 -276 -295 -452 -192 -226 -822 -834 -858 -826 -26 6 -350
306 -565 525 -305 310 -456 499 -544 683 -39 82 -40 89 -41 186 0 93 2 103 28
142 27 42 31 56 7 27z m1010 -2190 l0 -85 -1032 0 c-568 0 -1043 -3 -1055 -6
-23 -6 -23 -5 -23 85 l0 91 1055 0 1055 0 0 -85z m2330 0 l0 -85 -1050 0
-1050 0 0 85 0 85 1050 0 1050 0 0 -85z m-2330 -630 c0 -332 -2 -395 -14 -395
-14 0 -2046 417 -2078 426 -16 5 -18 22 -18 180 l0 174 463 3 c254 1 729 3
1055 5 l592 2 0 -395z m2330 210 c0 -173 0 -175 -22 -180 -25 -6 -603 -126
-868 -180 -91 -18 -210 -43 -265 -54 -55 -12 -125 -26 -155 -32 -30 -6 -104
-21 -165 -34 -188 -41 -598 -125 -612 -125 -10 0 -13 76 -13 390 l0 390 1050
0 1050 0 0 -175z"/>
</g>
</svg>
