<?xml version="1.0" standalone="no"?>
<!DOCTYPE svg PUBLIC "-//W3C//DTD SVG 20010904//EN"
 "http://www.w3.org/TR/2001/REC-SVG-20010904/DTD/svg10.dtd">
<svg version="1.0" xmlns="http://www.w3.org/2000/svg"
 width="320.000000pt" height="303.000000pt" viewBox="0 0 320.000000 303.000000"
 preserveAspectRatio="xMidYMid meet">
<metadata>
Created by potrace 1.15, written by Peter Selinger 2001-2017
</metadata>
<g transform="translate(0.000000,303.000000) scale(0.100000,-0.100000)"
fill="#000000" stroke="none">
<path d="M1500 2882 c-14 -13 -18 -21 -10 -17 17 7 -11 -16 -160 -133 -58 -45
-131 -103 -162 -128 -32 -25 -61 -43 -66 -40 -10 6 -104 -69 -96 -76 2 -3 -26
-28 -63 -56 -38 -29 -122 -94 -188 -147 -66 -52 -125 -93 -132 -90 -6 2 -19
-6 -30 -18 l-18 -22 25 20 25 20 -19 -23 c-11 -12 -24 -21 -30 -20 -12 3 -71
-40 -70 -50 0 -4 -15 -18 -32 -32 -123 -95 -164 -128 -202 -164 -41 -39 -42
-42 -42 -104 0 -61 2 -67 34 -97 39 -36 80 -48 124 -36 32 10 62 30 195 134
47 38 91 66 96 63 5 -3 15 2 22 12 13 16 12 16 -6 3 -11 -7 0 5 25 27 25 22
48 40 51 39 4 -1 21 12 40 28 35 32 158 129 249 198 30 22 67 52 82 65 14 13
31 22 36 18 5 -3 23 9 40 27 35 37 96 89 167 143 28 20 75 57 105 82 96 78
139 88 187 42 12 -11 24 -20 27 -20 3 0 51 -36 108 -81 57 -44 145 -113 196
-152 51 -40 119 -92 151 -117 32 -25 91 -71 132 -102 193 -149 243 -189 248
-196 3 -4 18 -15 33 -25 15 -9 72 -52 125 -94 54 -42 112 -82 129 -89 35 -15
86 -7 127 21 39 25 47 45 47 113 l0 59 -61 57 c-34 31 -64 56 -67 56 -14 0
-111 83 -106 91 3 5 -2 9 -12 9 -23 0 -115 71 -107 83 3 6 2 7 -4 4 -5 -3 -41
18 -79 47 l-69 53 -5 227 c-4 187 -8 228 -20 236 -23 15 -313 13 -328 -2 -7
-7 -12 -44 -12 -95 l0 -83 -77 61 c-43 33 -84 68 -90 77 -7 9 -13 12 -13 7 0
-4 -9 0 -20 10 -11 10 -17 22 -14 27 3 5 0 8 -8 6 -19 -4 -72 39 -56 45 7 3 2
6 -12 6 -15 1 -45 19 -73 45 -66 60 -110 78 -182 74 -46 -2 -66 -8 -85 -26z"/>
<path d="M1504 2378 c-44 -34 -100 -79 -126 -100 -48 -39 -65 -47 -52 -25 4 6
-2 3 -14 -7 -25 -21 -31 -36 -7 -16 8 7 15 10 15 7 0 -3 -15 -16 -32 -28 -26
-19 -30 -19 -18 -4 14 17 14 18 -8 6 -13 -7 -26 -21 -30 -32 -4 -10 -66 -64
-137 -119 -72 -55 -156 -121 -187 -146 -32 -25 -62 -43 -67 -39 -6 3 -37 -21
-70 -55 -33 -33 -63 -60 -68 -60 -4 0 -36 -26 -70 -58 l-63 -58 0 -112 0 -112
133 -1 c72 0 150 -6 172 -13 46 -14 68 -47 54 -83 l-9 -23 218 0 c206 0 218 1
230 20 12 19 23 20 247 20 235 0 236 0 244 -22 5 -13 5 -25 1 -28 -5 -3 -4
-27 1 -54 6 -31 6 -52 0 -55 -6 -4 -6 -25 0 -55 6 -31 6 -52 0 -55 -6 -4 -6
-25 0 -55 6 -31 6 -52 0 -55 -6 -4 -6 -26 0 -56 5 -27 5 -51 1 -53 -5 -1 -5
-24 -1 -50 4 -26 4 -51 -1 -55 -4 -5 -3 -29 1 -54 6 -31 6 -49 -2 -53 -7 -5
-4 -19 7 -44 l18 -36 383 0 c315 1 384 3 390 15 5 7 6 253 3 545 l-5 532 -30
25 c-16 14 -44 38 -62 53 -18 15 -34 26 -36 23 -3 -2 -13 7 -23 20 -11 13 -23
24 -27 25 -4 0 -22 12 -40 26 -18 14 -70 55 -117 91 -47 36 -112 87 -145 114
-33 26 -72 56 -87 65 -15 10 -25 23 -21 29 3 5 1 7 -4 4 -13 -8 -65 31 -58 44
4 5 -1 9 -10 9 -19 0 -175 117 -175 131 0 5 -6 9 -12 9 -7 0 -47 27 -88 60
-99 79 -113 79 -216 -2z"/>
<path d="M357 1342 c-10 -10 -17 -26 -17 -36 0 -30 -19 -55 -54 -71 -19 -9
-37 -26 -40 -38 -3 -12 -6 -86 -6 -164 l0 -143 -61 0 c-68 0 -99 -12 -99 -39
0 -11 18 -111 40 -223 21 -111 53 -273 69 -358 21 -110 35 -158 47 -167 14
-10 168 -13 721 -13 l703 0 10 26 c6 15 10 232 10 545 0 519 -2 550 -34 571
-6 4 -181 8 -388 8 l-377 0 -16 30 c-8 16 -15 36 -15 44 0 8 -7 22 -16 30 -13
14 -49 16 -238 16 -203 0 -224 -2 -239 -18z m1232 -669 c-1 -236 -3 -421 -5
-413 -2 8 -11 58 -20 110 -8 52 -19 115 -24 140 -5 25 -14 79 -20 120 -6 41
-15 89 -21 106 -5 17 -9 42 -9 57 0 29 -19 78 -35 89 -5 4 -262 8 -571 8
l-561 0 1 105 1 105 633 0 632 0 -1 -427z"/>
</g>
</svg>
