<?xml version="1.0" standalone="no"?>
<!DOCTYPE svg PUBLIC "-//W3C//DTD SVG 20010904//EN"
 "http://www.w3.org/TR/2001/REC-SVG-20010904/DTD/svg10.dtd">
<svg version="1.0" xmlns="http://www.w3.org/2000/svg"
 width="409.000000pt" height="363.000000pt" viewBox="0 0 409.000000 363.000000"
 preserveAspectRatio="xMidYMid meet">
<metadata>
Created by potrace 1.15, written by Peter Selinger 2001-2017
</metadata>
<g transform="translate(0.000000,363.000000) scale(0.100000,-0.100000)"
fill="#000000" stroke="none">
<path d="M330 3300 c-72 -6 -118 -18 -140 -37 -5 -5 162 -163 173 -163 5 0 28
-20 53 -45 24 -25 51 -45 59 -45 8 0 15 -4 15 -8 0 -8 184 -132 196 -132 3 0
20 -11 38 -25 18 -14 37 -25 42 -25 5 0 21 -6 35 -14 98 -51 264 -79 335 -56
21 7 56 24 77 38 31 21 37 30 33 49 -8 31 14 21 44 -20 26 -36 38 -51 74 -90
14 -15 26 -30 26 -34 0 -3 11 -18 25 -35 14 -16 25 -40 25 -54 0 -22 -2 -23
-25 -12 -14 6 -25 14 -25 18 0 4 -19 13 -42 21 -54 18 -333 20 -369 3 -13 -7
-40 -17 -59 -24 -50 -17 -144 -63 -148 -72 -2 -4 -11 -8 -20 -8 -10 0 -39 -16
-66 -35 -27 -19 -56 -35 -63 -35 -20 0 -46 -28 -40 -43 5 -12 73 -35 172 -57
28 -7 66 -18 85 -25 50 -20 198 -35 333 -35 104 0 122 3 169 25 68 33 79 42
107 88 19 30 21 40 11 52 -7 8 -19 15 -26 15 -8 0 -14 4 -14 8 0 5 -40 16 -90
26 -64 13 -90 23 -90 33 0 12 9 13 40 8 21 -4 78 -8 125 -10 48 -1 90 -7 95
-11 26 -28 158 -295 174 -354 4 -14 12 -34 17 -45 5 -11 17 -43 27 -71 l18
-52 36 18 c20 9 48 20 62 24 31 8 32 15 8 64 -28 59 -124 222 -133 228 -5 3
-9 14 -9 25 0 10 -3 19 -7 19 -5 0 -21 21 -38 48 -16 26 -35 53 -42 60 -7 7
-13 16 -13 20 0 4 -14 23 -30 42 -38 45 -38 45 -89 113 -24 31 -47 57 -52 57
-5 0 -9 9 -9 20 0 11 3 20 8 20 4 0 6 44 5 97 -1 93 10 153 28 153 4 0 5 -30
2 -67 -5 -68 9 -179 26 -196 5 -5 23 -6 40 -2 49 10 62 55 61 200 0 71 -7 147
-16 185 -8 36 -18 81 -23 100 -5 23 -12 34 -22 32 -8 -2 -15 -8 -17 -12 -2 -5
-13 -24 -26 -42 -40 -60 -76 -126 -76 -140 0 -8 -5 -19 -11 -25 -23 -23 -19
-167 6 -250 11 -34 -18 -29 -57 10 -48 48 -129 107 -146 107 -8 0 -37 18 -65
40 -27 22 -61 43 -74 46 -12 4 -23 10 -23 15 0 5 -7 9 -15 9 -9 0 -25 9 -37
20 -12 11 -30 20 -40 20 -10 0 -18 4 -18 9 0 4 -21 14 -47 21 -27 7 -52 17
-57 21 -6 5 -20 9 -32 9 -12 0 -25 7 -28 15 -5 13 2 15 47 9 28 -4 56 -10 61
-15 6 -5 20 -9 33 -9 13 0 23 -4 23 -10 0 -5 6 -10 14 -10 8 0 27 -6 43 -14
15 -8 47 -22 71 -32 23 -9 42 -20 42 -24 0 -3 24 -19 53 -34 28 -16 61 -36 72
-46 11 -9 30 -20 43 -23 19 -4 22 -1 22 22 0 15 -10 37 -22 49 -31 28 -48 50
-48 59 0 12 -60 66 -97 88 -18 11 -33 23 -33 27 0 4 -6 8 -14 8 -8 0 -39 13
-68 29 -29 16 -100 41 -158 56 -91 24 -127 28 -270 30 -91 1 -203 -1 -250 -5z"/>
<path d="M2258 3071 c-48 -20 -93 -42 -100 -47 -7 -5 -33 -20 -58 -34 -25 -13
-47 -26 -50 -29 -3 -4 -23 -19 -45 -35 -74 -53 -178 -174 -220 -255 -42 -83
-76 -273 -52 -297 9 -9 5 -14 56 86 53 104 130 230 141 230 5 0 12 9 15 20 6
20 35 29 35 11 0 -8 -58 -101 -79 -127 -32 -40 -91 -209 -91 -263 0 -30 5 -40
24 -51 49 -26 151 11 217 79 50 52 169 266 205 369 10 28 22 52 26 52 4 0 8
10 8 23 0 12 9 47 21 77 12 30 25 79 30 109 5 29 14 62 19 72 14 25 12 49 -2
49 -7 -1 -52 -18 -100 -39z"/>
<path d="M1415 2291 c-3 -6 -16 -11 -28 -11 -23 0 -129 -49 -135 -62 -2 -5 -9
-8 -15 -8 -30 -1 -191 -180 -231 -257 -9 -18 -21 -33 -26 -33 -6 0 -10 -7 -10
-16 0 -8 -14 -47 -31 -87 -55 -130 -95 -267 -78 -267 23 0 318 135 329 150 3
4 23 16 45 28 56 28 182 125 233 181 59 62 89 111 104 166 7 25 16 45 20 45 4
0 8 9 8 20 0 11 -4 20 -10 20 -5 0 -12 11 -16 25 -13 51 -95 27 -235 -70 -45
-30 -85 -55 -90 -55 -20 0 -7 29 24 53 17 13 46 37 62 52 41 36 102 75 118 75
8 0 19 11 25 25 10 22 9 25 -7 25 -11 0 -26 3 -34 6 -8 3 -18 1 -22 -5z"/>
<path d="M2080 2087 c-47 -5 -88 -13 -91 -18 -3 -5 -31 -16 -63 -24 -32 -9
-71 -24 -86 -35 -16 -11 -32 -20 -36 -20 -4 0 -39 -19 -78 -41 -64 -39 -246
-207 -246 -229 0 -4 -6 -15 -13 -22 -16 -16 -60 -92 -104 -177 -41 -78 -44
-149 -10 -228 45 -106 130 -140 272 -109 44 10 88 18 97 19 9 1 49 25 90 54
63 46 178 125 229 158 9 6 90 60 180 120 90 61 168 112 174 114 5 2 39 23 75
46 36 23 94 57 130 77 36 20 81 44 100 55 19 11 48 38 64 61 l30 42 -23 24
c-26 28 -129 79 -193 96 -24 7 -47 15 -53 20 -17 12 -186 30 -276 29 -46 -1
-122 -6 -169 -12z"/>
<path d="M3425 2009 c-35 -20 -67 -53 -77 -79 -5 -15 -9 -195 -9 -433 0 -394
1 -409 21 -442 34 -55 69 -65 229 -65 129 0 144 2 175 22 66 43 66 44 66 494
0 446 1 441 -62 486 -30 21 -45 23 -178 26 -96 1 -152 -2 -165 -9z"/>
<path d="M2794 1802 c-45 -15 -102 -42 -127 -60 -25 -17 -49 -32 -55 -32 -5 0
-28 -13 -50 -30 -23 -16 -44 -30 -46 -30 -9 0 -162 -96 -211 -133 -27 -20 -55
-37 -61 -37 -6 0 -17 -6 -23 -14 -7 -8 -44 -36 -84 -62 -40 -26 -76 -53 -82
-59 -5 -6 -48 -37 -94 -68 -46 -32 -96 -67 -110 -78 -14 -11 -55 -42 -91 -69
-108 -82 -120 -100 -120 -181 0 -34 -15 -38 -30 -9 -6 11 -23 23 -38 26 -15 4
-38 14 -52 24 -14 9 -47 24 -75 32 -27 9 -81 28 -120 43 -89 33 -196 38 -237
11 -32 -21 -37 -52 -9 -61 10 -3 30 -16 43 -29 67 -61 214 -113 356 -125 116
-10 142 -7 142 20 0 26 24 24 54 -6 18 -18 36 -25 65 -25 39 0 131 26 141 39
5 7 207 118 285 156 22 11 42 23 43 28 2 4 8 7 13 7 4 0 33 11 63 25 30 14 57
25 61 25 3 0 18 9 33 20 15 10 39 22 54 26 23 5 28 2 33 -19 8 -32 -18 -90
-60 -131 -26 -26 -109 -73 -190 -107 -118 -50 -347 -98 -484 -103 -54 -2 -104
-7 -111 -11 -14 -9 -166 2 -235 17 -95 20 -174 48 -222 78 -26 16 -59 35 -73
42 -14 7 -40 25 -58 40 -18 15 -44 31 -58 34 -35 9 -98 -11 -130 -41 -26 -24
-26 -26 -14 -71 19 -68 95 -149 185 -200 11 -6 45 -25 76 -42 71 -40 261 -106
359 -126 319 -65 592 -58 850 21 248 75 558 247 870 482 134 100 124 65 125
423 l1 307 -60 27 c-56 24 -74 27 -211 30 -142 3 -155 2 -231 -24z"/>
<path d="M1280 1140 c-13 -9 -13 -11 0 -20 8 -5 23 -10 33 -10 10 0 35 -9 57
-20 22 -11 44 -20 51 -20 6 0 23 -8 37 -18 31 -21 93 -44 100 -37 15 15 -26
69 -76 100 -50 31 -64 35 -122 35 -36 0 -72 -5 -80 -10z"/>
</g>
</svg>
