<?xml version="1.0" standalone="no"?>
<!DOCTYPE svg PUBLIC "-//W3C//DTD SVG 20010904//EN"
 "http://www.w3.org/TR/2001/REC-SVG-20010904/DTD/svg10.dtd">
<svg version="1.0" xmlns="http://www.w3.org/2000/svg"
 width="567.000000pt" height="561.000000pt" viewBox="0 0 567.000000 561.000000"
 preserveAspectRatio="xMidYMid meet">
<metadata>
Created by potrace 1.15, written by Peter Selinger 2001-2017
</metadata>
<g transform="translate(0.000000,561.000000) scale(0.100000,-0.100000)"
fill="#000000" stroke="none">
<path d="M2826 5024 c-174 -31 -356 -110 -496 -215 -461 -344 -616 -948 -379
-1477 74 -163 222 -344 379 -461 416 -310 1014 -310 1430 0 461 343 616 948
379 1477 -45 100 -148 247 -231 331 -184 186 -404 302 -652 346 -110 19 -322
18 -430 -1z m435 -268 c348 -75 637 -365 717 -720 21 -95 21 -307 0 -402 -62
-274 -238 -502 -488 -633 -176 -91 -348 -124 -536 -102 -133 15 -215 40 -334
102 -521 272 -670 940 -313 1406 146 192 359 320 598 359 93 16 259 11 356
-10z"/>
<path d="M2380 3839 l0 -511 243 4 c272 4 294 9 377 84 105 95 116 245 25 351
-36 42 -122 93 -159 93 -16 1 -12 6 16 20 150 80 155 313 8 415 -67 47 -116
55 -322 55 l-188 0 0 -511z m387 346 c63 -26 91 -118 56 -185 -28 -54 -81 -77
-195 -85 l-98 -7 0 151 0 152 103 -7 c56 -4 116 -12 134 -19z m60 -441 c49
-18 88 -60 98 -104 5 -22 0 -44 -17 -78 -20 -40 -31 -50 -78 -69 -46 -19 -75
-22 -177 -23 l-123 0 0 148 0 147 127 -3 c83 -2 143 -8 170 -18z"/>
<path d="M3350 3988 c-79 -43 -114 -121 -90 -201 16 -55 79 -115 177 -169 82
-45 133 -87 133 -111 0 -27 -40 -66 -75 -73 -43 -8 -129 18 -191 57 -24 16
-47 29 -49 29 -3 0 -5 -33 -5 -74 l0 -75 58 -23 c46 -19 76 -23 157 -23 88 0
105 3 145 25 110 62 130 185 44 280 -20 22 -80 67 -135 101 -105 64 -124 86
-115 125 12 48 136 45 217 -5 l49 -30 0 69 0 69 -47 22 c-34 16 -74 23 -138
26 -81 4 -95 2 -135 -19z"/>
<path d="M4460 2783 c-13 -3 -34 -13 -47 -23 -12 -9 -59 -32 -105 -50 -46 -18
-85 -36 -88 -40 -8 -11 -78 -44 -147 -69 -34 -13 -69 -31 -79 -42 -9 -10 -23
-19 -31 -19 -7 0 -13 -5 -13 -11 0 -16 29 -41 40 -34 12 7 43 -9 93 -48 l38
-30 40 18 c21 10 39 21 39 25 0 4 41 26 90 49 50 23 107 53 127 67 20 14 43
22 50 20 7 -3 13 -1 13 3 0 5 9 7 21 4 12 -3 24 -1 28 4 3 5 39 29 79 52 39
24 72 45 72 48 0 8 -30 35 -43 37 -93 19 -135 31 -131 38 5 8 -4 8 -46 1z"/>
<path d="M4723 2602 c-27 -13 -55 -29 -63 -36 -15 -13 -99 -58 -330 -178 -63
-33 -119 -64 -123 -68 -5 -4 -1 -23 9 -41 14 -27 18 -56 17 -131 -1 -89 5
-115 22 -89 3 6 29 23 58 40 29 17 64 40 77 51 13 11 49 35 80 52 30 17 64 39
75 48 11 10 34 25 50 35 l30 18 -30 -26 c-16 -15 -24 -26 -17 -27 7 0 24 11
37 25 14 13 40 31 59 40 18 9 51 31 71 50 21 18 70 46 109 61 39 16 73 31 76
35 8 11 99 39 125 39 33 0 32 21 -3 56 -66 68 -69 69 -179 70 -90 0 -109 -3
-150 -24z"/>
<path d="M1650 2606 c-14 -7 -47 -17 -75 -21 -27 -4 -54 -10 -60 -15 -10 -8
-191 -53 -381 -95 -60 -13 -127 -28 -149 -33 -59 -14 -172 -22 -154 -11 10 6
3 9 -23 9 -21 0 -38 -4 -38 -10 0 -5 -65 -9 -162 -9 -90 1 -181 -2 -203 -6
-38 -7 -39 -7 -20 10 l20 17 -20 -8 c-11 -4 -33 -9 -48 -12 -29 -5 -37 -13
-93 -102 -34 -55 -42 -76 -24 -65 14 9 12 -16 -4 -47 -18 -35 -38 -152 -42
-253 -4 -106 -13 -174 -25 -199 -10 -21 -10 -21 6 -1 15 19 16 13 15 -85 -1
-112 22 -299 38 -309 9 -6 35 -82 37 -107 0 -15 27 -46 33 -39 3 2 10 -3 17
-12 17 -22 99 -31 209 -23 98 8 686 5 854 -4 56 -3 112 -11 124 -17 11 -6 37
-11 57 -10 53 0 146 -20 131 -29 -8 -5 -1 -9 19 -12 17 -2 32 0 34 5 2 6 18 3
37 -6 40 -18 90 -33 178 -52 34 -8 75 -23 89 -35 16 -12 29 -17 33 -11 7 13
68 -3 116 -30 19 -10 43 -19 54 -19 22 0 208 -58 225 -70 6 -4 53 -22 105 -40
52 -18 110 -41 127 -52 18 -11 37 -17 43 -13 5 3 10 2 10 -3 0 -6 12 -13 28
-17 15 -3 44 -18 64 -32 20 -14 41 -22 46 -19 11 6 104 -23 113 -35 7 -11 101
-29 151 -29 24 0 37 -4 33 -10 -4 -6 8 -10 29 -10 20 0 36 5 36 10 0 6 11 10
24 10 40 0 130 23 144 37 7 7 17 13 22 13 5 0 17 3 27 7 10 4 2 -8 -17 -26
l-35 -32 60 32 c33 18 85 51 115 74 50 38 116 77 293 174 49 27 58 30 43 13
-34 -39 -1 -23 39 19 23 23 78 60 127 85 47 24 89 48 93 54 4 6 43 29 88 52
45 22 84 44 87 47 3 4 30 22 60 40 l55 33 -30 -33 -30 -33 35 25 c134 97 219
166 360 293 14 13 48 38 75 56 28 19 57 42 65 51 8 9 35 31 60 50 25 18 56 44
70 58 14 13 41 36 60 51 75 56 231 206 265 255 98 138 105 155 84 234 -22 87
-79 128 -213 152 -54 10 -71 10 -74 1 -2 -7 -12 -12 -22 -12 -30 0 -161 -50
-201 -77 -21 -14 -43 -22 -49 -18 -16 10 -93 -31 -128 -69 -16 -18 -56 -48
-89 -67 -32 -18 -61 -37 -64 -42 -4 -5 -40 -32 -82 -60 -42 -29 -102 -70 -134
-92 -32 -22 -73 -53 -92 -69 -19 -16 -56 -38 -82 -50 -25 -12 -61 -34 -78 -49
-18 -15 -39 -27 -46 -27 -7 0 -15 -4 -17 -8 -5 -13 -169 -93 -242 -118 -38
-13 -83 -24 -99 -24 -17 0 -37 -8 -46 -19 -10 -11 -47 -25 -96 -35 -130 -28
-132 -28 -115 -16 26 17 -20 12 -55 -6 -55 -29 -407 -22 -389 8 5 8 -5 9 -32
5 -39 -6 -157 15 -178 32 -11 9 -94 23 -156 26 -19 1 -55 7 -80 13 -25 7 -58
14 -74 17 -46 9 -18 24 69 36 103 14 153 15 358 4 109 -5 164 -11 155 -18 -9
-6 -8 -7 5 -3 10 3 51 8 90 11 40 3 90 8 112 11 37 5 39 4 20 -10 -18 -13 15
-4 95 27 27 10 174 40 210 42 55 3 58 4 72 18 7 6 53 32 102 57 119 60 207
144 225 215 7 28 17 58 22 67 12 24 12 81 -1 73 -6 -3 -19 13 -29 38 -10 24
-34 55 -52 70 -19 14 -42 33 -51 42 -10 8 -22 15 -27 15 -5 0 -17 7 -26 16 -9
9 -28 17 -43 19 -77 6 -151 18 -147 24 3 6 -87 12 -235 14 -19 0 -141 -3 -270
-8 -129 -5 -332 -9 -450 -8 -232 1 -216 -2 -405 68 -55 20 -113 40 -130 45
-16 4 -70 20 -120 35 -82 25 -105 28 -256 29 -92 0 -165 4 -162 9 6 9 3 9 -27
-7z"/>
</g>
</svg>
