<?xml version="1.0" standalone="no"?>
<!DOCTYPE svg PUBLIC "-//W3C//DTD SVG 20010904//EN"
 "http://www.w3.org/TR/2001/REC-SVG-20010904/DTD/svg10.dtd">
<svg version="1.0" xmlns="http://www.w3.org/2000/svg"
 width="480.000000pt" height="512.000000pt" viewBox="0 0 480.000000 512.000000"
 preserveAspectRatio="xMidYMid meet">
<metadata>
Created by potrace 1.15, written by Peter Selinger 2001-2017
</metadata>
<g transform="translate(0.000000,512.000000) scale(0.100000,-0.100000)"
fill="#000000" stroke="none">
<path d="M3630 4852 c-36 -8 -66 -18 -68 -23 -2 -5 -10 -9 -18 -9 -8 0 -14 -4
-14 -10 0 -5 -6 -10 -12 -10 -7 0 -29 -19 -48 -42 -19 -22 -45 -51 -57 -64
-13 -13 -23 -30 -23 -39 0 -8 -3 -15 -7 -15 -10 0 -33 -49 -33 -71 0 -10 -5
-19 -11 -21 -14 -5 -13 -226 1 -243 6 -7 8 -20 4 -29 -4 -10 0 -18 10 -22 9
-3 16 -14 16 -23 0 -9 9 -23 20 -31 11 -8 20 -21 20 -29 0 -8 23 -36 50 -62
28 -26 50 -52 50 -59 0 -7 7 -10 15 -6 8 3 15 1 15 -4 0 -6 5 -10 12 -10 6 0
39 -11 72 -24 99 -40 221 -36 331 9 82 34 93 40 89 47 -3 4 0 8 6 8 15 0 100
89 100 104 0 7 9 18 20 26 11 8 20 25 20 37 0 13 5 23 10 23 6 0 10 14 10 31
0 17 4 28 10 24 17 -10 16 177 -2 235 -15 53 -32 90 -40 90 -5 0 -8 7 -8 15 0
18 -141 165 -158 165 -7 0 -12 5 -12 10 0 6 -8 10 -18 10 -10 0 -22 4 -27 9
-18 16 -255 19 -325 3z"/>
<path d="M1660 4580 c0 -6 -27 -10 -60 -10 -38 0 -60 -4 -60 -11 0 -7 -9 -9
-21 -6 -25 7 -134 -64 -194 -126 -66 -69 -114 -142 -108 -166 3 -12 1 -21 -4
-21 -5 0 -15 -16 -23 -35 -8 -19 -17 -35 -21 -35 -3 0 -12 -13 -19 -30 -7 -16
-16 -30 -21 -30 -5 0 -9 -7 -9 -16 0 -14 -12 -32 -60 -91 -6 -7 -10 -18 -10
-25 0 -8 -9 -20 -20 -28 -11 -8 -20 -22 -20 -31 0 -10 -3 -19 -8 -21 -4 -1
-25 -28 -46 -58 -22 -30 -50 -67 -64 -82 -13 -14 -21 -31 -18 -37 4 -7 1 -8
-8 -5 -9 3 -16 2 -17 -2 -4 -45 -7 -57 -15 -62 -6 -4 -26 -29 -45 -57 -18 -27
-42 -58 -51 -69 -10 -11 -18 -25 -18 -32 0 -6 -7 -18 -16 -25 -9 -7 -20 -22
-25 -34 -13 -30 -32 -58 -52 -76 -9 -9 -17 -23 -17 -32 0 -8 -3 -17 -8 -19 -4
-1 -23 -28 -42 -58 -19 -30 -47 -70 -62 -88 -29 -34 -36 -48 -18 -37 6 4 3
-10 -7 -29 -9 -20 -20 -36 -25 -36 -4 0 -8 -9 -8 -20 0 -11 -4 -20 -10 -20 -5
0 -10 -9 -10 -20 0 -11 -4 -20 -10 -20 -5 0 -10 -7 -10 -15 0 -8 -4 -15 -10
-15 -5 0 -10 -9 -10 -20 0 -11 -4 -20 -10 -20 -5 0 -10 -13 -10 -30 0 -16 -3
-30 -8 -30 -8 0 -33 -65 -35 -91 -1 -9 -7 -15 -13 -12 -9 3 -11 -7 -7 -37 4
-26 2 -45 -5 -49 -16 -10 -19 -214 -4 -219 7 -2 12 -17 12 -33 0 -16 4 -29 9
-29 5 0 12 -13 16 -29 3 -16 13 -32 21 -35 8 -3 14 -10 14 -16 0 -6 16 -26 35
-46 19 -19 35 -39 35 -44 0 -6 7 -10 15 -10 8 0 15 -4 15 -10 0 -5 7 -10 15
-10 9 0 27 -11 41 -25 14 -14 27 -25 30 -25 3 0 20 -10 37 -23 21 -14 31 -29
29 -39 -2 -10 -7 -18 -11 -18 -4 0 -13 -16 -21 -35 -8 -19 -17 -35 -22 -35 -4
0 -8 -6 -8 -14 0 -20 -50 -106 -62 -106 -5 0 -7 -9 -3 -19 3 -11 1 -22 -5 -26
-5 -3 -10 -16 -10 -29 0 -12 -4 -26 -8 -32 -9 -9 -28 -63 -52 -142 -7 -23 -19
-47 -27 -53 -7 -7 -10 -21 -7 -34 3 -13 1 -26 -5 -29 -6 -4 -11 -23 -11 -42 0
-19 -4 -34 -10 -34 -5 0 -10 -15 -10 -34 0 -19 -4 -36 -9 -38 -6 -1 -11 -24
-13 -49 -2 -29 -7 -45 -14 -42 -8 3 -10 -12 -6 -46 3 -31 1 -51 -5 -51 -6 0
-13 -31 -15 -69 -3 -37 -8 -74 -13 -80 -4 -7 -8 -47 -10 -89 -2 -42 -6 -135
-10 -207 -10 -189 -11 -325 -4 -325 4 0 12 -13 19 -30 7 -16 16 -30 21 -30 5
0 9 -6 9 -14 0 -9 17 -17 52 -21 92 -13 2652 -9 2676 4 11 6 28 8 38 4 13 -5
16 -3 11 10 -4 11 -2 14 9 10 12 -5 19 7 15 30 -1 4 6 21 14 37 11 22 15 65
16 169 0 77 -3 146 -7 153 -5 7 -9 42 -10 78 -3 95 -24 262 -36 287 -6 12 -8
38 -5 57 3 20 2 36 -4 36 -5 0 -9 20 -9 44 0 25 -5 48 -11 52 -7 4 -9 21 -6
41 4 24 2 36 -9 40 -9 3 -14 19 -14 43 0 21 -5 40 -11 42 -5 2 -11 18 -11 36
-1 17 -5 32 -10 32 -4 0 -8 11 -8 24 0 14 -4 28 -10 31 -5 3 -10 22 -10 41 0
19 -4 34 -10 34 -5 0 -7 7 -4 15 4 8 -1 17 -10 21 -9 3 -16 17 -16 29 0 13 -4
26 -9 29 -9 6 -25 64 -22 83 1 7 -2 13 -7 13 -10 0 -38 60 -34 73 1 4 -2 7 -7
7 -5 0 -15 20 -22 45 -7 25 -17 45 -21 45 -4 0 -8 9 -8 20 0 11 -4 20 -8 20
-5 0 -14 11 -20 24 -9 20 -7 27 16 48 15 13 47 37 72 53 52 35 170 150 170
167 0 6 10 22 23 36 12 13 22 36 23 50 5 168 5 216 -1 267 -4 33 -12 66 -17
72 -6 7 -7 24 -4 38 5 18 2 25 -9 25 -9 0 -15 9 -15 25 0 14 -4 25 -10 25 -5
0 -10 8 -10 18 0 22 -22 72 -32 72 -5 0 -8 7 -8 15 0 8 -4 15 -10 15 -5 0 -10
9 -10 20 0 11 -4 20 -8 20 -5 0 -15 18 -22 40 -7 22 -17 40 -21 40 -4 0 -15
20 -26 45 -10 25 -21 45 -25 45 -5 0 -8 7 -8 15 0 8 -4 15 -10 15 -5 0 -10 7
-10 15 0 8 -4 15 -9 15 -5 0 -12 14 -16 30 -4 17 -13 30 -21 30 -8 0 -14 8
-14 18 0 10 -9 24 -20 32 -11 8 -20 20 -20 27 0 7 -8 22 -17 34 -10 11 -26 30
-35 41 -10 11 -20 29 -23 39 -4 11 -11 19 -16 19 -5 0 -9 5 -9 12 0 6 -11 26
-25 44 -14 18 -25 37 -25 43 0 6 -4 11 -8 11 -5 0 -15 12 -23 28 -8 15 -21 34
-30 42 -8 8 -26 35 -40 60 -13 25 -33 52 -44 61 -11 9 -27 33 -35 53 -7 20
-17 36 -22 36 -4 0 -5 7 -2 15 4 8 1 15 -6 15 -16 0 -40 26 -40 44 0 9 -4 16
-10 16 -5 0 -10 5 -10 11 0 6 -12 25 -27 43 -14 17 -32 45 -40 61 -7 17 -23
44 -33 60 -11 17 -23 38 -26 48 -4 9 -10 17 -15 17 -5 0 -9 11 -9 25 0 29 -15
59 -47 92 -12 12 -24 30 -27 40 -4 10 -22 29 -41 43 -20 14 -48 35 -63 47 -15
13 -33 23 -39 23 -7 0 -13 3 -13 8 0 9 -49 32 -71 32 -10 0 -19 4 -21 10 -1 5
-27 11 -56 12 -30 1 -56 6 -58 10 -7 12 -34 10 -34 -2z m-350 -699 c0 -25 125
-151 150 -151 6 0 10 -3 10 -7 0 -10 49 -33 71 -33 10 0 19 -4 21 -9 3 -10 59
-14 161 -12 43 0 66 5 62 11 -4 6 7 10 24 10 17 0 31 5 31 10 0 6 9 10 20 10
11 0 20 5 20 10 0 6 5 10 10 10 6 0 21 9 33 20 12 11 27 18 34 16 8 -3 10 1 6
11 -5 12 -2 15 10 10 10 -4 14 -2 11 6 -2 7 9 26 25 43 17 18 27 35 24 38 -4
3 -1 6 5 6 7 0 12 9 12 20 0 32 13 23 50 -35 19 -30 38 -55 43 -55 4 0 7 -9 7
-20 0 -11 4 -20 9 -20 5 0 13 -9 16 -20 4 -11 17 -32 31 -45 13 -13 24 -29 24
-35 0 -6 11 -23 24 -37 13 -14 30 -37 38 -52 7 -14 15 -28 18 -31 13 -13 50
-70 50 -77 0 -5 9 -15 20 -23 11 -8 20 -20 20 -27 0 -7 5 -13 10 -13 6 0 10
-7 10 -15 0 -8 9 -24 19 -34 11 -11 25 -30 32 -42 6 -13 16 -28 20 -33 17 -20
59 -87 59 -93 0 -3 8 -13 19 -22 10 -9 22 -27 26 -40 7 -23 14 -34 43 -66 6
-7 12 -18 12 -24 0 -14 22 -54 35 -63 6 -4 6 -8 2 -8 -4 0 1 -9 12 -21 10 -11
22 -36 26 -55 3 -19 13 -38 21 -41 7 -3 14 -14 14 -24 0 -10 3 -19 8 -19 4 0
13 -23 20 -52 6 -28 16 -54 21 -57 9 -6 18 -49 26 -121 4 -46 -13 -130 -27
-130 -4 0 -8 -7 -8 -16 0 -19 -56 -74 -76 -74 -8 0 -14 -4 -14 -10 0 -5 -7
-10 -15 -10 -8 0 -15 -4 -15 -10 0 -5 -7 -10 -16 -10 -8 0 -12 -4 -9 -10 3 -5
-1 -10 -9 -10 -9 0 -16 -4 -16 -10 0 -5 -7 -10 -15 -10 -9 0 -25 -9 -37 -20
-29 -27 -38 -25 -51 10 -6 17 -15 30 -20 30 -5 0 -15 7 -23 15 -9 8 -12 15 -8
15 4 0 -3 8 -14 19 -12 10 -22 22 -22 26 0 4 -10 16 -22 27 -13 11 -48 44 -80
74 -31 30 -59 54 -62 54 -3 0 -14 7 -23 16 -26 22 -142 94 -153 94 -6 0 -10 5
-10 11 0 6 6 9 13 6 10 -4 12 3 9 23 -2 15 1 31 7 34 6 4 11 16 11 27 0 10 5
19 10 19 6 0 10 11 10 25 0 14 5 25 10 25 6 0 10 9 10 19 0 11 5 23 10 26 6 3
10 16 10 28 0 12 7 35 15 50 8 15 11 35 8 44 -5 12 -2 15 8 11 11 -4 13 4 11
43 -3 33 0 49 8 49 8 0 11 18 9 58 -2 31 -1 62 2 67 9 15 -2 105 -12 105 -5 0
-9 11 -9 24 0 35 -18 78 -30 71 -5 -3 -10 0 -10 8 0 18 -94 107 -114 107 -9 0
-16 5 -16 10 0 6 -9 10 -20 10 -11 0 -20 7 -20 15 0 11 -8 13 -30 9 -19 -4
-30 -2 -30 5 0 7 -21 11 -55 11 -42 0 -55 3 -55 15 0 16 -11 19 -26 7 -5 -4
-54 -5 -109 -2 -55 3 -104 3 -110 0 -5 -4 -31 -5 -57 -4 -30 2 -48 -1 -48 -7
0 -7 -22 -10 -59 -7 -47 2 -57 0 -53 -11 4 -10 1 -13 -10 -8 -16 6 -104 -33
-142 -63 -38 -30 -76 -73 -76 -86 0 -8 -4 -14 -9 -14 -5 0 -14 -15 -21 -32 -8
-18 -20 -41 -28 -50 -8 -9 -12 -21 -9 -25 3 -5 7 -55 8 -111 1 -56 6 -102 11
-102 4 0 8 -20 8 -45 0 -25 4 -45 9 -45 5 0 14 -27 22 -60 7 -33 17 -60 21
-60 4 0 8 -13 8 -30 0 -16 5 -30 10 -30 6 0 10 -11 10 -25 0 -14 5 -25 10 -25
6 0 10 -8 10 -18 0 -10 4 -22 8 -27 5 -6 13 -22 20 -37 11 -26 9 -28 -71 -79
-45 -29 -83 -56 -85 -61 -2 -4 -8 -8 -13 -8 -5 0 -25 -15 -43 -32 -18 -18 -42
-40 -52 -49 -11 -9 -41 -42 -69 -73 -27 -31 -60 -68 -72 -81 -13 -13 -23 -31
-23 -40 0 -21 -22 -19 -48 5 -12 11 -25 20 -30 20 -5 0 -17 9 -27 20 -10 11
-24 20 -32 20 -7 0 -13 5 -13 10 0 6 -7 10 -15 10 -8 0 -15 5 -15 10 0 6 -5
10 -11 10 -6 0 -16 6 -23 13 -8 6 -23 19 -35 27 -11 8 -21 22 -21 32 0 10 -4
18 -10 18 -5 0 -10 16 -10 35 0 19 -3 35 -7 35 -12 0 -15 88 -3 95 5 3 10 24
10 46 0 21 5 39 10 39 6 0 10 11 10 23 0 29 26 84 52 114 11 12 17 26 14 32
-7 11 41 114 55 119 5 2 9 10 9 18 0 8 5 14 10 14 6 0 10 8 10 18 0 10 9 24
20 32 11 8 20 22 20 32 0 10 3 18 8 18 4 0 13 13 20 28 6 16 21 38 32 50 12
12 17 22 13 22 -4 0 -3 4 2 8 6 4 26 32 45 62 19 30 50 72 68 92 19 21 31 42
27 48 -4 6 1 7 11 3 13 -5 16 -3 11 10 -4 12 -2 14 10 10 12 -5 14 -1 8 16 -4
12 -1 27 7 36 23 25 33 39 47 68 8 15 18 27 23 27 4 0 8 6 8 13 0 7 9 19 20
27 11 8 20 21 20 30 0 9 9 22 20 30 11 8 20 20 20 28 0 7 6 19 13 27 25 27 43
51 62 88 11 20 22 37 26 37 4 0 9 10 12 21 5 20 7 20 21 6 9 -9 16 -20 16 -26z
m416 -500 c13 -12 60 -22 68 -14 22 22 173 -16 214 -54 17 -16 15 -23 -8 -23
-11 0 -20 -5 -20 -11 0 -7 -11 -9 -27 -6 -16 3 -37 -2 -52 -12 -14 -10 -48
-32 -74 -49 -26 -18 -52 -32 -57 -32 -6 0 -10 -4 -10 -10 0 -5 -7 -10 -16 -10
-8 0 -12 -4 -9 -10 3 -5 -1 -10 -9 -10 -9 0 -16 -3 -16 -7 0 -5 -4 -14 -9 -22
-6 -10 -20 -2 -56 33 -26 25 -70 56 -96 68 -27 13 -49 28 -49 35 0 6 -8 12
-17 12 -40 1 -93 14 -93 22 0 5 -13 9 -30 9 -16 0 -30 3 -30 6 0 10 24 29 55
43 17 7 38 18 49 23 10 5 46 9 80 7 33 -1 68 1 76 4 35 13 47 15 86 16 22 1
44 -3 50 -8z m-343 -258 c20 -3 37 -10 37 -14 0 -5 9 -9 20 -9 11 0 20 -4 20
-9 0 -5 9 -13 21 -16 28 -9 139 -123 139 -143 0 -14 36 -39 67 -45 25 -5 35 0
63 28 18 18 29 38 26 44 -5 7 -1 8 9 5 12 -5 16 -2 13 12 -2 14 2 18 16 16 13
-3 17 1 13 12 -4 11 -1 13 10 9 12 -5 15 -2 10 10 -4 12 -2 14 10 10 12 -5 15
-2 10 10 -4 12 -2 14 10 10 13 -5 15 -2 10 11 -4 9 -3 15 2 11 5 -3 26 6 47
20 20 14 45 25 55 25 10 0 21 5 24 10 12 19 26 11 15 -9 -5 -11 -10 -33 -10
-50 0 -17 -4 -31 -10 -31 -5 0 -10 -15 -10 -34 0 -19 -4 -38 -10 -41 -5 -3
-10 -14 -10 -24 0 -10 -7 -24 -15 -31 -9 -7 -14 -19 -11 -26 3 -8 0 -11 -9 -8
-11 5 -13 -2 -8 -30 4 -24 2 -36 -6 -36 -6 0 -11 -9 -11 -20 0 -11 -3 -20 -7
-20 -11 0 -33 -51 -27 -61 3 -5 0 -9 -5 -9 -6 0 -11 -9 -11 -20 0 -11 -4 -20
-9 -20 -5 0 -12 -20 -15 -45 -6 -37 -3 -51 14 -75 12 -17 28 -30 36 -30 8 0
14 -5 14 -10 0 -6 20 -15 45 -22 25 -7 45 -16 45 -20 0 -4 7 -8 15 -8 8 0 15
-4 15 -10 0 -5 7 -10 15 -10 8 0 15 -4 15 -8 0 -5 12 -15 28 -23 15 -8 43 -29
62 -46 19 -18 39 -33 43 -33 13 0 76 -73 77 -87 0 -7 8 -13 17 -13 9 0 13 -3
10 -6 -4 -4 4 -16 16 -28 13 -12 34 -38 48 -58 13 -21 27 -38 30 -38 4 0 12
-13 19 -30 7 -16 16 -30 20 -30 5 0 13 -12 19 -27 6 -16 22 -47 36 -71 14 -23
25 -49 25 -57 0 -8 4 -15 10 -15 5 0 7 -7 4 -15 -4 -8 -1 -15 5 -15 6 0 19
-18 28 -40 10 -22 21 -40 25 -40 5 0 8 -9 8 -19 0 -11 5 -23 10 -26 6 -3 10
-17 10 -31 0 -13 4 -24 8 -24 5 0 14 -22 21 -50 7 -27 17 -52 22 -55 4 -3 11
-28 15 -55 4 -28 10 -50 15 -50 5 0 9 -13 9 -30 0 -16 5 -30 10 -30 6 0 10 -4
10 -9 0 -4 -52 -9 -116 -10 -106 -2 -158 6 -206 30 -10 5 -26 9 -37 9 -10 0
-22 7 -25 16 -4 9 -13 14 -21 10 -8 -3 -15 -1 -15 4 0 6 -11 10 -25 10 -14 0
-25 5 -25 10 0 6 -9 10 -21 10 -11 0 -17 5 -14 10 3 6 0 10 -9 10 -8 0 -21 2
-29 6 -9 3 -50 -31 -112 -95 -56 -57 -117 -109 -144 -123 -25 -13 -47 -26 -49
-30 -2 -5 -17 -8 -33 -8 -16 0 -29 -5 -29 -11 0 -7 -23 -10 -62 -9 -35 1 -67
1 -73 0 -25 -6 -130 3 -133 11 -2 5 -11 9 -20 9 -23 0 -82 23 -82 32 0 4 -7 8
-15 8 -8 0 -15 5 -15 10 0 6 -9 10 -21 10 -11 0 -18 4 -14 9 3 5 -4 12 -15 16
-11 3 -20 11 -20 16 0 5 -5 9 -11 9 -12 0 -69 58 -69 70 0 4 -12 21 -27 37
-34 36 -85 49 -104 26 -17 -19 -126 -73 -150 -73 -10 0 -20 -4 -23 -9 -9 -13
-67 -21 -198 -27 -126 -6 -136 -2 -104 42 8 11 12 30 9 45 -3 15 0 30 6 33 6
4 11 18 11 32 0 13 5 24 10 24 6 0 10 11 10 25 0 14 5 25 10 25 6 0 10 14 10
30 0 17 4 30 8 30 4 0 14 20 21 44 7 25 20 47 28 50 8 4 13 13 9 21 -3 8 0 17
6 21 7 5 8 2 3 -6 -5 -9 -4 -11 4 -6 6 4 9 12 5 17 -3 6 1 24 9 42 8 18 25 53
36 78 12 25 31 56 41 67 11 12 20 28 20 37 0 8 4 15 8 15 5 0 14 11 20 24 12
27 10 24 111 146 68 82 208 210 230 210 6 0 11 5 11 10 0 6 7 10 15 10 8 0 15
5 15 10 0 6 9 10 20 10 11 0 20 3 20 8 0 8 49 32 67 32 7 0 13 5 13 10 0 6 5
10 12 10 28 0 48 33 48 80 0 51 -17 110 -31 110 -5 0 -9 9 -9 20 0 11 -5 20
-11 20 -5 0 -8 4 -4 9 3 5 1 12 -5 16 -5 3 -10 17 -10 31 0 13 -4 24 -10 24
-5 0 -10 11 -10 24 0 13 -4 26 -10 28 -5 2 -10 18 -12 36 -1 17 -6 32 -10 32
-4 0 -5 7 -2 15 4 8 -1 17 -10 21 -9 4 -16 18 -16 34 0 16 -4 30 -10 32 -5 2
-10 21 -12 43 -1 22 -7 44 -12 48 -6 5 -2 6 9 2 11 -4 37 -9 58 -12z m-223
-1832 c0 -16 112 -121 129 -121 5 0 11 -4 13 -8 4 -12 113 -62 132 -62 9 0 16
-4 16 -9 0 -9 39 -18 120 -27 25 -3 60 -12 78 -20 26 -12 36 -13 47 -4 8 7 42
14 75 17 33 3 63 10 66 14 3 5 18 9 33 9 15 0 31 4 37 8 5 5 22 14 37 20 21 9
26 9 21 1 -9 -15 5 -7 76 45 30 22 80 64 111 94 l57 54 38 -17 c22 -9 47 -21
56 -26 10 -5 27 -9 38 -9 11 0 20 -4 20 -10 0 -5 18 -10 39 -10 22 0 41 -5 43
-11 3 -9 246 -17 283 -9 28 6 35 -2 35 -39 0 -22 5 -43 11 -47 7 -4 9 -24 6
-50 -3 -27 0 -50 9 -62 7 -10 14 -47 15 -83 2 -35 6 -66 10 -69 9 -6 15 -162
7 -175 -8 -14 2 -65 13 -65 5 0 9 -13 9 -29 l0 -30 -1165 0 c-714 0 -1165 4
-1165 10 0 5 5 9 11 9 7 0 10 21 9 57 -1 32 -1 63 0 68 1 6 1 40 0 76 -1 37 3
70 8 73 6 3 8 15 5 25 -3 10 0 21 5 25 5 3 7 26 4 51 -3 30 -1 45 7 45 7 0 11
20 11 53 0 30 6 62 14 72 8 12 12 32 9 51 l-5 32 158 0 c105 0 160 4 162 11 2
6 19 11 37 11 19 0 37 5 40 10 3 6 17 10 30 10 13 0 27 5 30 11 4 6 14 8 22 5
8 -3 26 3 40 14 27 21 53 26 53 11z"/>
<path d="M3930 3930 c0 -5 -7 -10 -15 -10 -8 0 -15 -4 -15 -10 0 -5 -9 -10
-20 -10 -11 0 -20 -4 -20 -10 0 -5 -9 -10 -19 -10 -11 0 -23 -4 -26 -10 -3 -5
-19 -10 -35 -10 -16 0 -32 5 -35 10 -3 6 -15 10 -26 10 -10 0 -19 5 -19 10 0
6 -9 10 -19 10 -11 0 -21 4 -23 10 -1 5 -16 12 -33 15 -42 8 -52 -19 -45 -120
4 -44 3 -84 -1 -90 -4 -5 -5 -22 -2 -37 4 -23 11 -28 35 -28 17 0 27 4 23 10
-3 6 3 10 14 10 12 0 21 5 21 11 0 8 11 9 31 5 25 -5 30 -3 25 10 -3 9 -2 12
5 9 6 -4 18 0 28 9 14 13 22 14 49 4 18 -7 32 -16 32 -20 0 -4 9 -8 20 -8 11
0 20 -4 20 -9 0 -13 68 -34 87 -27 11 5 14 14 10 35 -3 16 -3 32 1 35 7 8 4
145 -4 189 -4 18 -12 27 -25 27 -10 0 -19 -4 -19 -10z"/>
<path d="M3223 3812 c-58 -2 -93 -7 -93 -14 0 -5 -9 -8 -19 -5 -15 3 -18 1
-14 -11 5 -11 2 -14 -11 -9 -9 4 -15 3 -11 -2 3 -5 -2 -25 -11 -45 -16 -33
-16 -43 1 -163 10 -70 19 -137 20 -148 1 -11 4 -27 8 -35 3 -8 8 -42 12 -75
15 -139 17 -155 25 -155 5 0 8 -27 8 -61 0 -35 4 -64 10 -68 6 -4 12 -35 14
-69 1 -34 6 -62 10 -62 4 0 8 -25 8 -55 0 -34 4 -55 11 -55 8 0 10 -15 7 -45
-3 -27 -1 -51 7 -62 7 -10 15 -43 18 -73 4 -30 12 -84 18 -120 6 -36 12 -89
14 -119 2 -30 7 -57 12 -60 4 -3 10 -26 11 -51 3 -35 9 -1006 12 -1865 l0
-100 215 1 c118 0 217 3 221 6 3 4 5 327 5 719 0 490 4 717 11 726 14 17 56
17 73 -1 11 -11 14 -140 14 -726 0 -392 2 -715 6 -718 6 -7 425 -6 432 1 6 7
6 1868 -1 1874 -2 3 -1 16 5 30 5 13 9 39 9 58 0 19 5 46 10 61 6 15 13 47 15
73 14 126 17 147 22 161 9 24 14 53 14 82 0 15 4 30 9 33 6 4 10 33 10 66 0
33 4 59 10 59 6 0 10 15 10 33 0 17 0 47 0 65 0 17 5 32 10 32 6 0 10 24 10
54 0 30 4 56 10 58 5 2 11 29 12 61 1 35 6 56 13 53 6 -2 9 16 7 51 -2 31 1
60 7 66 6 6 11 32 11 57 0 26 3 49 6 53 8 8 17 166 15 272 -2 101 -15 145 -41
145 -10 0 -20 5 -22 10 -2 7 -63 12 -165 13 -88 1 -159 -1 -157 -4 2 -3 -10
-33 -26 -65 -16 -32 -30 -67 -30 -76 0 -10 -4 -18 -8 -18 -5 0 -14 -16 -22
-35 -8 -19 -17 -35 -22 -35 -4 0 -8 -8 -8 -18 0 -10 -4 -22 -8 -27 -5 -6 -15
-26 -22 -45 -7 -19 -23 -48 -35 -65 -34 -47 -40 -59 -26 -50 8 5 7 -4 -3 -23
-9 -17 -16 -38 -16 -47 0 -8 -4 -15 -10 -15 -5 0 -10 -9 -10 -20 0 -11 -4 -20
-10 -20 -5 0 -10 -9 -10 -20 0 -11 -4 -20 -10 -20 -5 0 -10 -11 -10 -25 0 -14
-4 -25 -9 -25 -5 0 -12 -10 -16 -22 l-8 -23 -4 23 c-2 12 -9 22 -14 22 -5 0
-9 6 -9 13 0 7 -9 32 -20 55 -11 22 -20 46 -20 52 0 5 -4 10 -10 10 -5 0 -10
9 -10 20 0 11 -3 20 -8 20 -4 0 -16 27 -26 60 -11 33 -23 60 -28 60 -4 0 -8 6
-8 13 0 14 -24 70 -41 97 -5 8 -12 23 -15 33 -4 9 -10 17 -14 17 -4 0 -10 18
-14 39 -3 21 -12 41 -19 44 -7 3 -22 30 -32 61 l-19 56 -62 0 c-34 0 -68 1
-76 3 -7 1 -55 1 -105 -1z"/>
</g>
</svg>
