<?xml version="1.0" standalone="no"?>
<!DOCTYPE svg PUBLIC "-//W3C//DTD SVG 20010904//EN"
 "http://www.w3.org/TR/2001/REC-SVG-20010904/DTD/svg10.dtd">
<svg version="1.0" xmlns="http://www.w3.org/2000/svg"
 width="650.000000pt" height="500.000000pt" viewBox="0 0 650.000000 500.000000"
 preserveAspectRatio="xMidYMid meet">
<metadata>
Created by potrace 1.15, written by Peter Selinger 2001-2017
</metadata>
<g transform="translate(0.000000,500.000000) scale(0.100000,-0.100000)"
fill="#000000" stroke="none">
<path d="M4485 4349 c-88 -10 -236 -58 -312 -101 -77 -43 -193 -155 -242 -233
-77 -122 -139 -331 -185 -620 l-11 -70 -85 -22 c-267 -68 -458 -227 -521 -433
-18 -60 -21 -89 -17 -173 4 -88 9 -111 36 -168 56 -117 178 -209 298 -225 l51
-6 6 158 c5 138 10 173 37 262 42 142 102 257 181 349 l27 32 7 -42 c9 -52 49
-165 82 -232 91 -182 248 -339 432 -434 106 -54 165 -74 291 -96 236 -42 494
17 699 158 189 131 315 306 396 552 5 16 13 6 41 -50 90 -185 133 -350 141
-539 l6 -118 79 7 c100 8 159 26 228 67 235 141 188 500 -100 771 -94 88 -193
148 -297 179 -66 19 -73 23 -73 47 0 102 -58 317 -118 436 -200 401 -595 601
-1077 544z m290 -1072 c49 -11 362 -2 509 14 129 14 130 14 122 -82 -14 -168
-86 -321 -205 -439 -135 -134 -295 -201 -481 -202 -361 -3 -650 250 -698 610
l-9 64 37 23 c52 33 116 108 162 193 22 39 43 72 47 72 4 0 17 -17 28 -37 24
-43 43 -134 43 -204 0 -52 9 -60 56 -51 60 11 225 205 325 382 13 22 15 7 19
-155 l5 -179 40 -9z"/>
<path d="M1665 4201 c-38 -10 -88 -25 -110 -34 -118 -44 -318 -166 -414 -252
-111 -102 -125 -152 -87 -336 13 -68 29 -187 35 -264 18 -256 89 -429 240
-589 322 -340 844 -378 1202 -87 195 159 308 373 329 626 37 444 35 581 -9
681 -23 51 -86 116 -140 144 -113 57 -476 111 -841 125 -112 4 -147 2 -205
-14z m200 -741 c-25 -50 -32 -80 -17 -80 5 0 46 11 91 25 158 47 419 56 626
22 l70 -12 -1 -125 c0 -108 -4 -135 -26 -198 -37 -103 -82 -174 -159 -251
-249 -250 -648 -251 -899 -2 -134 133 -194 275 -195 463 0 58 3 109 7 113 14
14 182 7 226 -9 l43 -16 117 60 c64 32 123 59 130 59 8 1 4 -16 -13 -49z"/>
<path d="M1310 2133 c-63 -70 -236 -261 -385 -423 -596 -654 -720 -791 -722
-798 -1 -4 55 -67 126 -141 l127 -133 315 268 c516 442 554 474 560 474 3 0 9
-127 13 -282 4 -156 9 -285 11 -287 8 -7 1343 14 1350 21 4 4 10 123 14 264
l6 257 270 -277 c149 -153 295 -311 325 -352 44 -59 60 -74 81 -74 21 0 30 8
45 42 17 37 661 788 683 796 5 1 11 -32 15 -75 4 -43 13 -116 20 -163 l12 -85
-63 -138 c-35 -76 -63 -145 -63 -154 0 -14 13 -15 108 -9 59 3 362 9 675 12
312 4 569 10 572 14 2 3 -35 67 -84 141 l-87 134 14 203 c9 111 18 202 21 202
4 0 12 -9 18 -19 7 -11 136 -186 288 -389 l275 -369 132 32 c177 43 249 63
255 69 3 3 -75 114 -173 246 -99 133 -307 416 -465 628 l-285 387 -572 3 -571
2 -94 -112 c-151 -182 -527 -637 -592 -715 -32 -40 -61 -73 -64 -73 -4 1 -34
36 -68 78 -65 82 -253 313 -496 610 -81 99 -171 210 -200 246 l-52 66 -590 0
-590 0 -115 -127z"/>
</g>
</svg>
